<?xml version="1.0" encoding="iso-8859-1"?>
<!-- Generator: Adobe Illustrator 19.0.0, SVG Export Plug-In . SVG Version: 6.00 Build 0)  -->
<svg version="1.1" id="Capa_1" xmlns="http://www.w3.org/2000/svg" xmlns:xlink="http://www.w3.org/1999/xlink" x="0px" y="0px"
	 viewBox="0 0 116.265 116.265" style="enable-background:new 0 0 116.265 116.265;" xml:space="preserve">
<g id="_x30_103-night-clouds-moon-icon">
	<g>
		<path style="fill-rule:evenodd;clip-rule:evenodd;" d="M63.408,38.967c0.618,2.375,2.603,4.814,4.023,6.799
			c3.436,4.807,9.088,6.67,14.527,8.512c4.415,1.494,9.154,1.842,13.788,1.303c5.062-0.586,9.914-3,13.705-6.361
			c2.144-1.902,3.902-4.783,5.334-7.226c2.139-3.65,2.501-7.139-3.029-4.346c-1.512,0.766-2.914,1.029-4.501,1.627
			c-3.527,1.33-6.374,1.033-10.116,0.914c-3.131-0.098-5.672-0.514-8.406-2.002c-2.726-1.484-4.384-3.096-6.089-5.824
			c-3.545-5.666-1.571-13,0.295-19.018c1.008-3.252,2.979-5.301,5.244-7.801c1.066-1.176,3.701-2.746,2.427-4.477
			c-0.128-0.174-0.296-0.348-0.507-0.523c-1.483-1.233-4.171-0.029-5.862,0.316c-2.128,0.428-4.443,1.066-6.243,2.324
			c-2.149,1.502-4.636,2.359-6.388,4.467c-2.109,2.537-4.375,4.609-5.896,7.525c-2.611,5-3.876,9.855-3.397,15.498
			C62.552,33.443,62.705,36.264,63.408,38.967z M68.652,21.613c0.834-2.553,1.988-4.969,3.146-7.387
			c0.946-1.977,2.242-2.805,3.817-4.303c1.297-1.232,3.34-3.686,5.294-3.363c-0.103,0.5-0.264,0.975-0.464,1.438
			c-0.751,1.742-2.039,3.295-2.688,5.08c-1.134,3.119-1.686,5.824-1.686,9.131c0,5.463,0.657,10.248,3.305,15.115
			c1.295,2.381,2.453,4.086,4.761,5.543c1.107,0.699,1.97,1.641,3.256,1.91c1.313,0.275,2.645,0.465,3.981,0.598
			c2.824,0.279,5.93,0.551,8.705-0.047c2.229-0.482,4.691-0.188,6.82-1.098c-1.288,1.207-2.772,2.172-4.141,3.279
			c-1.572,1.271-2.507,1.535-4.443,2.1c-3.162,0.92-5.962,1.517-9.28,1.145c-7.185-0.807-13.359-2.992-17.629-9.029
			C67.495,36.193,66.57,27.978,68.652,21.613z M30.498,24.459c-2.124,1.021-10.325,6.842-4.445,8.332
			c2.736,0.693,5.677,0.344,8.467,0.381c1.261,0.516,3.619,0.705,4.691-0.334c0.646-4.893-6.008-2.481-8.713-4.022
			c1.483-0.908,8.722-3.859,5.697-6.703c-1.225-1.397-3.613-1.449-5.263-1.932c-1.464-0.428-6.139-2.4-7.496-1.275
			C19.251,22.379,28.848,23.018,30.498,24.459z M36.195,22.113C36.712,22.601,35.585,21.418,36.195,22.113L36.195,22.113z
			 M4.878,45.418c2.272-0.481,4.031-2.104,6.184-2.863c-1.117,3.215-7.297,11.394,0.557,10.275c2.153-0.309,10.333-3.426,9.497-6.59
			c-1.104-2.119-7.604,1.764-7.708,1.342c-0.217-0.885,1.756-3.246,1.902-4.316c0.12-0.892-0.01-2.17-0.028-3.1
			c-0.02-1.051-0.202-1.777-0.506-2.254c-1.241-1.951-4.491,0.234-6.79,1.344c-1.837,0.885-4.354,1.807-6.003,3
			C-0.738,44.225,2.804,45.855,4.878,45.418z M104.73,77.851c-3.838-1.124-6.487-0.288-10.23,0.226
			c-0.038-3.861-0.878-7.682-2.796-11.057c-1.686-2.967-3.774-4.678-6.605-6.508c-4.801-3.1-11.419-3.672-16.68-1.48
			c-1.668,0.695-2.752,1.979-4.202,2.936c-0.145,0.096-0.293,0.186-0.445,0.275c-1.792-2.664-1.584-5.576-3.97-7.973
			c-1.631-1.637-5.454-5.15-7.859-5.346c-6.865-0.561-12.834-1-19.436,1.303c-4.946,1.727-9.597,4.57-12.409,9.107
			c-3.375,5.449-3.164,12.242-2.335,18.406c-3.678,0.146-9.019,1.258-11.856,3.727c-3.272,2.846-4.69,4.672-5.497,8.986
			c-1.711,9.145,2.448,16.695,9.64,21.975c5.865,4.309,14.772,3.768,21.803,3.824c9.181,0.074,18.371-0.151,27.531-0.812
			c4.791-0.35,9.571-0.824,14.358-1.209c4.683-0.377,9.306-0.317,13.825-1.512c7.911-2.09,14.587-4.426,21.341-9.176
			c4.306-5.375,8.133-12.914,4.431-19.51C111.528,80.803,108.31,78.9,104.73,77.851z M106.914,97.078
			c-1.966,2.785-4.376,5.641-7.572,6.924c-5.956,2.393-12.577,2.166-18.838,3.07c-2.764,0.4-5.508,1.434-8.297,1.539
			c-9.756,0.375-19.488,1.271-29.255,1.373c-6.854,0.074-14.471,2.15-21.135-0.105c-1.632-0.553-3.116-1.027-4.738-1.715
			c-4.463-1.889-7.89-5.107-10.373-9.312c-1.135-4.58-2.114-10.912,2.719-13.699c2.383-1.373,4.888-1.279,7.475-1.152
			c1.579,0.078,4.783-1.037,5.744,0.793c0.492,0.933,1.892,1.574,3.163,1.324c1.641-1.234-0.507-4.375-0.854-5.846
			c-0.64-2.711-0.821-5.051-0.821-7.893c0.48-2.592,1.308-6.234,3.08-8.223c1.745-1.957,3.707-3.715,5.817-5.271
			c4.243-3.129,10.822-4.746,16.054-4.018c4.269,0.594,6.349,3.143,8.512,6.668c0.737,1.199,1.269,2.438,1.625,3.742
			c0.229,0.836,0.385,1.699,0.477,2.597c0.106,1.042,0.138,4.196,1.632,4.505c1.219,0.252,1.842-2.021,2.617-2.744
			c1.729-1.611,3.036-3.416,5.36-4.203c3.91-1.318,8.709-2.336,12.628-0.465c3.094,1.479,5.379,5.445,6.462,8.492
			c0.689,1.939,0.427,3.012,0.335,5.102c-0.069,1.584-0.362,3.219,1.076,4.228c2.842,2.002,7.3,0.402,10.418,0.078
			c2.902-0.304,5.803,0.908,7.646,3.486C110.292,89.744,109.125,93.945,106.914,97.078z M39.986,88.945
			c0.022,0.006,0.046,0.013,0.07,0.019c1.235,0.313,2.513-0.116,3.563-0.77c1.253-0.781,2.292-1.899,3.108-3.12
			c0.811-1.214,1.445-2.598,1.668-4.049c0.098-0.637,0.112-1.294-0.013-1.929c-0.114-0.58-0.321-1.264-0.87-1.541
			c-0.061-0.031-0.125-0.056-0.194-0.077c-0.235-0.068-0.464-0.027-0.697,0.032c-1.696,0.427-2.097,2.368-2.726,3.754
			c-0.694,1.531-1.63,3.021-3.345,3.513c-2.728-0.513-0.634-5.847-2.681-7.038c-2.746-0.242-2.582,2.834-2.888,4.729
			C34.466,85.654,37.256,88.189,39.986,88.945z M57.473,89.523c3.119,1.162,5.187-0.553,6.976-2.965
			c1.171-1.574,2.966-4.856,0.897-6.471c-2.648,0.561-4.363,6.832-6.992,5.148c-1.82-1.166-0.168-4.924-1.398-6.486
			c-0.238-0.305-0.461-0.521-0.668-0.662c-2.191-1.48-2.716,5.436-2.693,6.666C53.632,86.738,55.617,88.832,57.473,89.523z
			 M74.766,89.603c-1.174,0.27-3.25,1.992-4.057,2.547c-1.928,1.252-3.745,2.559-5.875,3.461c-4.401,1.859-8.627,2.279-13.381,2.172
			c-4.885-0.107-9.638-0.51-14.394-1.697c-3.031-0.752-7.489-3.707-10.583-2.596c-1.416,3.715,8.136,6.141,10.388,6.365
			c1.256,1.045,4.13,0.999,5.673,1.299c2.545,0.49,5.366,0.438,7.97,0.561c5.867,0.273,11.634-0.373,17.017-2.898
			c3.211-1.51,6.904-3.963,7.924-7.615C75.839,89.797,75.461,89.443,74.766,89.603z"/>
	</g>
</g>
<g>
</g>
<g>
</g>
<g>
</g>
<g>
</g>
<g>
</g>
<g>
</g>
<g>
</g>
<g>
</g>
<g>
</g>
<g>
</g>
<g>
</g>
<g>
</g>
<g>
</g>
<g>
</g>
<g>
</g>
</svg>
